<svg width="156" height="95" viewBox="0 0 156 95" fill="none" xmlns="http://www.w3.org/2000/svg">
<path d="M95.7356 0C98.3672 0 100.499 2.15444 100.499 4.81439C100.499 7.47433 98.3672 9.62877 95.7356 9.62877C93.1041 9.62877 90.9727 7.47433 90.9727 4.81439C90.9727 2.15444 93.1041 0 95.7356 0Z" fill="#ED7F2E"/>
<path d="M64.301 87.7783C66.2776 87.7783 67.8732 89.3911 67.8732 91.3891C67.8732 93.3871 66.2776 94.9999 64.301 94.9999C62.3244 94.9999 60.7288 93.3871 60.7288 91.3891C60.7288 89.3911 62.3363 87.7783 64.301 87.7783Z" fill="#ED7F2E"/>
<path d="M34.5316 79.582C15.4916 79.582 0 63.9232 0 44.6777C0 25.4322 15.4916 9.77344 34.5316 9.77344C42.1286 9.77344 49.3445 12.2288 55.3816 16.8626L55.8579 17.2237L55.1434 18.1866L54.6671 17.8255C48.8325 13.3361 41.8666 10.977 34.5316 10.977C16.1465 10.977 1.19075 26.0942 1.19075 44.6777C1.19075 63.2612 16.1465 78.3784 34.5316 78.3784C41.3546 78.3784 47.9156 76.3082 53.5121 72.3725L54.0003 72.0234L54.679 73.0104L54.1908 73.3594C48.4038 77.4276 41.6046 79.582 34.5316 79.582Z" fill="#ED7F2E"/>
<path d="M24.7184 56.5925H21.9558V64.2353H20.8008V56.5925H18.0264V55.6056H24.7064V56.5925H24.7184ZM30.7316 59.7941C31.065 59.7941 31.3627 59.758 31.6128 59.6737C31.8747 59.5895 32.0891 59.4691 32.2558 59.3247C32.4344 59.1682 32.5654 58.9877 32.6487 58.7831C32.7321 58.5784 32.7797 58.3498 32.7797 58.085C32.7797 57.5674 32.613 57.1823 32.2796 56.9175C31.9462 56.6527 31.4461 56.5323 30.7793 56.5323H29.5171V59.782H30.7316V59.7941ZM34.673 64.2353H33.6489C33.4346 64.2353 33.2798 64.1511 33.1846 63.9946L30.9698 60.9134C30.8983 60.8171 30.8269 60.7449 30.7554 60.7088C30.684 60.6607 30.5649 60.6366 30.3982 60.6366H29.529V64.2353H28.3739V55.6056H30.7793C31.3151 55.6056 31.7795 55.6657 32.1724 55.7741C32.5654 55.8824 32.8869 56.0389 33.1488 56.2555C33.4108 56.4601 33.6013 56.7129 33.7204 57.0138C33.8395 57.3026 33.9109 57.6396 33.9109 58.0007C33.9109 58.3016 33.8633 58.5905 33.768 58.8553C33.6728 59.1201 33.5299 59.3608 33.3513 59.5654C33.1726 59.77 32.9464 59.9505 32.6844 60.095C32.4225 60.2394 32.1367 60.3598 31.8033 60.432C31.9462 60.5162 32.0772 60.6366 32.1843 60.8051L34.673 64.2353ZM42.7462 61.0338L41.4126 57.5193C41.3769 57.411 41.3293 57.2906 41.2935 57.1582C41.2459 57.0138 41.2102 56.8693 41.1626 56.7129C41.0792 57.0378 40.9958 57.3026 40.9006 57.5193L39.567 61.0217H42.7462V61.0338ZM45.1515 64.2353H44.2585C44.1513 64.2353 44.068 64.2113 44.0084 64.1631C43.9489 64.115 43.9013 64.0428 43.8655 63.9585L43.0677 61.8763H39.2335L38.4357 63.9585C38.4119 64.0307 38.3643 64.0909 38.3048 64.1511C38.2333 64.2113 38.15 64.2353 38.0547 64.2353H37.1616L40.5672 55.6056H41.7341L45.1515 64.2353ZM49.8074 64.2353H48.6523V55.6056H49.8074V64.2353ZM61.2862 55.6176V64.2474H60.7146C60.6193 64.2474 60.5479 64.2353 60.4764 64.1992C60.4169 64.1631 60.3574 64.115 60.2978 64.0428L55.3562 57.5434C55.3681 57.6396 55.3681 57.748 55.3681 57.8443C55.3681 57.9405 55.3801 58.0248 55.3801 58.109V64.2474H54.3679V55.6176H54.9633C55.0109 55.6176 55.0586 55.6176 55.0943 55.6296C55.13 55.6296 55.1657 55.6417 55.1895 55.6657C55.2133 55.6778 55.2491 55.7019 55.2729 55.7259C55.2967 55.75 55.3324 55.7861 55.3681 55.8222L60.3097 62.3216C60.2978 62.2133 60.2978 62.117 60.2859 62.0207C60.2859 61.9244 60.274 61.8282 60.274 61.7319V55.6176H61.2862ZM67.0017 64.2353H65.8467V55.6056H67.0017V64.2353ZM78.4805 55.6176V64.2474H77.897C77.8018 64.2474 77.7304 64.2353 77.6708 64.1992C77.6113 64.1631 77.5517 64.115 77.4922 64.0428L72.5506 57.5434C72.5625 57.6396 72.5625 57.748 72.5625 57.8443C72.5625 57.9405 72.5744 58.0248 72.5744 58.109V64.2474H71.5623V55.6176H72.1577C72.2053 55.6176 72.2529 55.6176 72.2886 55.6296C72.3244 55.6296 72.3601 55.6417 72.3839 55.6657C72.4077 55.6778 72.4434 55.7019 72.4673 55.7259C72.4911 55.75 72.5268 55.7861 72.5625 55.8222L77.4922 62.3216C77.4803 62.2133 77.4803 62.117 77.4684 62.0207C77.4684 61.9244 77.4684 61.8282 77.4684 61.7319V55.6176H78.4805ZM89.9712 60.095V63.4049C89.5425 63.7178 89.0901 63.9585 88.6019 64.1029C88.1136 64.2594 87.5897 64.3316 87.0063 64.3316C86.3156 64.3316 85.6964 64.2233 85.1487 64.0187C84.601 63.802 84.1246 63.5011 83.7317 63.116C83.3388 62.7308 83.0411 62.2614 82.8267 61.7198C82.6124 61.1782 82.5171 60.5764 82.5171 59.9265C82.5171 59.2645 82.6243 58.6627 82.8267 58.1211C83.0292 57.5795 83.3269 57.1221 83.7079 56.7369C84.0889 56.3518 84.5414 56.0509 85.0772 55.8342C85.6131 55.6176 86.2204 55.5213 86.8872 55.5213C87.2206 55.5213 87.5421 55.5454 87.8279 55.5935C88.1136 55.6417 88.3875 55.7139 88.6376 55.8102C88.8876 55.9065 89.1139 56.0148 89.3163 56.1472C89.5306 56.2796 89.7212 56.436 89.9117 56.6045L89.5783 57.1341C89.5306 57.2184 89.4592 57.2665 89.3758 57.2906C89.2925 57.3147 89.2091 57.2906 89.1139 57.2304C89.0186 57.1702 88.9114 57.1101 88.7805 57.0258C88.6614 56.9416 88.5066 56.8693 88.328 56.7971C88.1494 56.7249 87.9469 56.6527 87.7088 56.6045C87.4706 56.5564 87.1849 56.5323 86.8515 56.5323C86.3752 56.5323 85.9346 56.6166 85.5416 56.7731C85.1487 56.9295 84.8272 57.1582 84.5533 57.4471C84.2794 57.7359 84.0651 58.097 83.9222 58.5183C83.7793 58.9395 83.7079 59.4089 83.7079 59.9265C83.7079 60.4681 83.7793 60.9495 83.9341 61.3828C84.0889 61.8041 84.3033 62.1652 84.589 62.4661C84.8748 62.767 85.2201 62.9956 85.625 63.1521C86.0298 63.3086 86.4823 63.3808 86.9824 63.3808C87.3754 63.3808 87.7326 63.3326 88.0422 63.2484C88.3518 63.1521 88.6495 63.0317 88.9472 62.8753V60.9736H87.6254C87.554 60.9736 87.4945 60.9495 87.4468 60.9014C87.3992 60.8532 87.3754 60.8051 87.3754 60.7329V60.0709H89.9712V60.095ZM105.534 62.454C105.594 62.454 105.653 62.4781 105.701 62.5262L106.165 63.0317C105.82 63.441 105.391 63.7539 104.891 63.9946C104.391 64.2233 103.796 64.3316 103.093 64.3316C102.486 64.3316 101.926 64.2233 101.426 64.0187C100.926 63.802 100.497 63.5011 100.152 63.116C99.7949 62.7308 99.521 62.2614 99.3305 61.7198C99.1399 61.1782 99.0328 60.5764 99.0328 59.9265C99.0328 59.2765 99.128 58.6868 99.3424 58.1331C99.5448 57.5915 99.8306 57.1221 100.188 56.7369C100.557 56.3518 100.998 56.0509 101.51 55.8342C102.022 55.6176 102.581 55.5093 103.212 55.5093C103.82 55.5093 104.355 55.6056 104.82 55.7981C105.284 55.9907 105.689 56.2675 106.046 56.6045L105.665 57.1341C105.641 57.1702 105.606 57.2063 105.57 57.2304C105.534 57.2545 105.487 57.2665 105.427 57.2665C105.356 57.2665 105.272 57.2304 105.165 57.1462C105.058 57.0619 104.927 56.9777 104.76 56.8814C104.594 56.7851 104.379 56.7008 104.129 56.6166C103.879 56.5323 103.57 56.4962 103.2 56.4962C102.76 56.4962 102.355 56.5684 101.998 56.7249C101.629 56.8814 101.319 57.098 101.057 57.3989C100.795 57.6878 100.593 58.0489 100.45 58.4701C100.307 58.8914 100.224 59.3608 100.224 59.9024C100.224 60.444 100.295 60.9134 100.45 61.3347C100.605 61.7559 100.819 62.117 101.081 62.4059C101.343 62.6947 101.664 62.9114 102.01 63.0679C102.367 63.2243 102.76 63.2965 103.177 63.2965C103.427 63.2965 103.653 63.2845 103.855 63.2484C104.058 63.2123 104.248 63.1641 104.427 63.104C104.605 63.0438 104.76 62.9595 104.903 62.8632C105.058 62.767 105.201 62.6466 105.356 62.5142C105.403 62.4901 105.475 62.454 105.534 62.454ZM115.144 63.2845L115.132 64.2353H109.88V55.6056H115.132V56.5684H111.035V59.433H114.358V60.3477H111.035V63.2845H115.144ZM126.051 55.6176V64.2474H125.467C125.372 64.2474 125.301 64.2353 125.241 64.1992C125.182 64.1631 125.122 64.115 125.062 64.0428L120.133 57.5434C120.145 57.6396 120.145 57.748 120.145 57.8443C120.145 57.9405 120.145 58.0248 120.145 58.109V64.2474H119.133V55.6176H119.728C119.776 55.6176 119.823 55.6176 119.859 55.6296C119.895 55.6296 119.93 55.6417 119.954 55.6657C119.978 55.6778 120.014 55.7019 120.038 55.7259C120.061 55.75 120.097 55.7861 120.121 55.8222L125.051 62.3216C125.039 62.2133 125.039 62.117 125.027 62.0207C125.027 61.9244 125.027 61.8282 125.027 61.7319V55.6176H126.051ZM136.386 56.5925H133.624V64.2353H132.481V56.5925H129.718V55.6056H136.398V56.5925H136.386ZM142.388 59.7941C142.721 59.7941 143.019 59.758 143.269 59.6737C143.531 59.5895 143.745 59.4691 143.912 59.3247C144.091 59.1682 144.222 58.9877 144.305 58.7831C144.388 58.5784 144.436 58.3498 144.436 58.085C144.436 57.5674 144.269 57.1823 143.936 56.9175C143.602 56.6527 143.102 56.5323 142.435 56.5323H141.173V59.782H142.388V59.7941ZM146.329 64.2353H145.305C145.091 64.2353 144.936 64.1511 144.841 63.9946L142.626 60.9134C142.555 60.8171 142.483 60.7449 142.412 60.7088C142.34 60.6607 142.221 60.6366 142.054 60.6366H141.173V64.2353H140.018V55.6056H142.435C142.971 55.6056 143.448 55.6657 143.841 55.7741C144.233 55.8824 144.555 56.0389 144.805 56.2555C145.067 56.4601 145.258 56.7129 145.377 57.0138C145.496 57.3026 145.555 57.6396 145.555 58.0007C145.555 58.3016 145.508 58.5905 145.412 58.8553C145.317 59.1201 145.174 59.3608 144.996 59.5654C144.817 59.77 144.603 59.9505 144.329 60.095C144.067 60.2394 143.781 60.3598 143.448 60.432C143.59 60.5162 143.721 60.6366 143.829 60.8051L146.329 64.2353ZM155.141 63.2845V64.2353H149.878V55.6056H155.141V56.5684H151.033V59.433H154.355V60.3477H151.033V63.2845H155.141Z" fill="#F4F4F4"/>
<path d="M17.861 45.4476C18.6946 45.4476 19.278 45.2912 19.6233 44.9662C19.9686 44.6412 20.1473 44.0755 20.1473 43.2451V25.9614H24.2791L24.3149 43.4497C24.3149 44.9542 24.1005 46.1217 23.6838 46.9281C23.2551 47.7465 22.5407 48.3724 21.6714 48.6612C20.7545 48.9983 19.4804 49.1668 17.8491 49.1668V45.4476H17.861Z" fill="#ED7F2E"/>
<path d="M31.1124 29.7287V34.5792H38.4236V38.2261H31.1124V43.2691H40.2336V46.9883H26.9448V25.9614H40.2336V29.7407H31.1124V29.7287Z" fill="#ED7F2E"/>
<path d="M47.807 29.7285H42.3176V25.9492H57.4163V29.7285H51.9865V47.0001H47.8189V29.7285H47.807Z" fill="#ED7F2E"/>
<path d="M60.2418 46.6271L59.1583 46.4104L59.8132 42.7635C62.4923 43.3051 64.338 43.6542 65.7669 43.6542C67.8983 43.6542 68.97 42.7515 68.97 40.9341C68.97 40.1878 68.6842 39.6462 68.1246 39.2972C67.5649 38.9481 66.6123 38.575 65.2787 38.1778C63.6831 37.7205 62.4328 37.2149 61.5159 36.6613C60.5991 36.1076 59.9322 35.4457 59.5274 34.6754C59.1106 33.9171 58.9082 32.9663 58.9082 31.8228C58.9082 29.7647 59.5274 28.2 60.7539 27.1529C61.9803 26.1058 63.7069 25.5762 65.9217 25.5762C66.8148 25.5762 67.7197 25.6364 68.6128 25.7447C69.5416 25.853 70.899 26.0817 72.6851 26.4067L72.0659 30.0415C69.363 29.6082 67.5887 29.2832 66.3385 29.2832C64.1475 29.2832 63.052 30.0295 63.052 31.5099C63.0401 31.7506 63.0877 31.9913 63.183 32.208C63.2782 32.4246 63.4211 32.6292 63.5997 32.7857C64.0046 33.1348 64.4571 33.4116 64.9572 33.6042C65.5049 33.8208 66.4218 34.1337 67.7078 34.543C69.101 35.0003 70.1727 35.4697 70.9347 35.9632C71.6492 36.3965 72.2207 37.0344 72.5899 37.8047C72.9352 38.5389 73.1019 39.4777 73.1019 40.6332C73.1019 42.7996 72.4589 44.4606 71.1848 45.6161C69.9107 46.7715 68.1841 47.3492 66.017 47.3492C64.4452 47.3733 62.5162 47.1206 60.2418 46.6271Z" fill="#F4F4F4"/>
<path d="M79.0907 46.2293C77.8404 45.471 76.9355 44.2915 76.3877 42.7148C75.84 41.138 75.5542 39.0919 75.5542 36.5764C75.5542 34.0368 75.8281 31.9666 76.3877 30.3779C76.9355 28.7771 77.8404 27.5855 79.0907 26.7912C80.341 25.9968 81.9961 25.5996 84.068 25.5996C86.1399 25.5996 87.7951 25.9968 89.0453 26.7912C90.2956 27.5855 91.1887 28.7771 91.7483 30.3779C92.308 31.9787 92.5818 34.0489 92.5818 36.5764C92.5818 39.0558 92.3199 41.0779 91.7841 42.6425C91.2482 44.2072 90.3552 45.3867 89.1168 46.1811C87.8784 46.9755 86.1875 47.3727 84.068 47.3727C81.9961 47.3727 80.341 46.9875 79.0907 46.2293ZM86.6162 42.9555C87.2354 42.4861 87.6641 41.7519 87.9141 40.7288C88.1642 39.7058 88.2952 38.3216 88.2952 36.5644C88.2952 34.8071 88.1642 33.411 87.9022 32.3759C87.6403 31.3287 87.1997 30.5584 86.5924 30.0529C85.9732 29.5474 85.1397 29.2947 84.068 29.2947C82.9964 29.2947 82.1628 29.5474 81.5436 30.0529C80.9245 30.5584 80.4958 31.3287 80.2338 32.3759C79.9719 33.423 79.8409 34.8192 79.8409 36.5644C79.8409 38.1892 79.948 39.5132 80.1743 40.5242C80.4005 41.5352 80.8173 42.3055 81.4246 42.8471C82.0438 43.3888 82.913 43.6536 84.068 43.6536C85.1516 43.6536 86.0089 43.4249 86.6162 42.9555Z" fill="#F4F4F4"/>
<path d="M108.548 25.9613H99.4629H95.4382V47.0001H99.6058V39.5739H106.917V35.8669H99.6058V29.7285H114.014V47.0001H118.181V29.7285H123.623V25.9492H108.548V25.9613Z" fill="#F4F4F4"/>
<path d="M125.31 24.4209H129.716C132.562 24.4209 133.979 25.8411 133.979 28.6816C133.979 30.1259 133.622 31.2212 132.895 31.9795C132.169 32.7377 131.121 33.1109 129.716 33.1109H127.739V36.6855H125.31V24.4209ZM129.692 30.9925C130.895 30.9925 131.502 30.2222 131.502 28.6816C131.502 27.9354 131.359 27.3938 131.074 27.0568C130.788 26.7198 130.323 26.5513 129.692 26.5513H127.739V30.9925H129.692Z" fill="#F4F4F4"/>
<path d="M135.683 24.4209H140.327C143.149 24.4209 144.554 25.7689 144.554 28.465C144.554 30.0658 143.971 31.2453 142.792 32.0036L144.495 36.6976H141.839L140.446 32.5813H138.1V36.6976H135.671V24.4209H135.683ZM140.363 30.4509C140.91 30.4509 141.339 30.2704 141.637 29.9213C141.934 29.5723 142.077 29.0909 142.077 28.4891C142.077 27.8873 141.923 27.4179 141.625 27.0688C141.315 26.7318 140.899 26.5513 140.339 26.5513H138.124V30.4509H140.363Z" fill="#F4F4F4"/>
<path d="M148.129 36.2399C147.403 35.7946 146.879 35.1085 146.557 34.1938C146.236 33.279 146.069 32.0754 146.069 30.6071C146.069 29.1266 146.236 27.923 146.557 26.9842C146.879 26.0575 147.403 25.3594 148.129 24.89C148.855 24.4326 149.82 24.1919 151.035 24.1919C152.249 24.1919 153.202 24.4206 153.94 24.89C154.666 25.3594 155.19 26.0454 155.512 26.9842C155.833 27.911 156 29.1266 156 30.6071C156 32.0514 155.845 33.2309 155.536 34.1456C155.274 35.0002 154.714 35.7344 153.976 36.2158C153.249 36.6732 152.273 36.9139 151.035 36.9139C149.82 36.9139 148.855 36.6852 148.129 36.2399ZM152.523 34.3382C152.88 34.0734 153.13 33.6401 153.285 33.0383C153.428 32.4486 153.499 31.6301 153.499 30.6071C153.499 29.584 153.428 28.7656 153.273 28.1638C153.118 27.562 152.868 27.1046 152.511 26.8157C152.154 26.5269 151.666 26.3704 151.046 26.3704C150.427 26.3704 149.939 26.5148 149.57 26.8157C149.213 27.1166 148.963 27.562 148.808 28.1638C148.653 28.7656 148.582 29.584 148.582 30.6191C148.57 31.3894 148.629 32.1717 148.772 32.93C148.867 33.4475 149.117 33.929 149.498 34.278C149.856 34.591 150.368 34.7474 151.035 34.7474C151.666 34.7474 152.166 34.615 152.523 34.3382Z" fill="#F4F4F4"/>
</svg>
